<?xml version="1.0" encoding="UTF-8" standalone="no"?>
<svg
   xmlns:osb="http://www.openswatchbook.org/uri/2009/osb"
   xmlns:dc="http://purl.org/dc/elements/1.1/"
   xmlns:cc="http://creativecommons.org/ns#"
   xmlns:rdf="http://www.w3.org/1999/02/22-rdf-syntax-ns#"
   xmlns:svg="http://www.w3.org/2000/svg"
   xmlns="http://www.w3.org/2000/svg"
   version="1.1"
   id="svg2"
   viewBox="0 0 192 192"
   height="192"
   width="192">
  <defs
     id="defs4">
    <linearGradient
       osb:paint="solid"
       id="linearGradient4146">
      <stop
         id="stop4148"
         offset="0"
         style="stop-color:#000000;stop-opacity:1;" />
    </linearGradient>
  </defs>
  <metadata
     id="metadata7">
    <rdf:RDF>
      <cc:Work
         rdf:about="">
        <dc:format>image/svg+xml</dc:format>
        <dc:type
           rdf:resource="http://purl.org/dc/dcmitype/StillImage" />
        <dc:title></dc:title>
      </cc:Work>
    </rdf:RDF>
  </metadata>
  <g
     transform="translate(0,-860.36216)"
     id="layer1">
    <path
       id="path4158"
       d="M 95.74441,860.18737 A 96.32192,95.858052 0 0 0 -0.57498956,956.04663 96.32192,95.858052 0 0 0 53.243291,1041.938 c 26.414452,-2.193 35.984042,-43.71486 34.345317,-66.73892 -0.09019,-1.26729 -0.150173,-2.50808 -0.211236,-3.75289 -6.92077,4.13038 -12.158563,11.23049 -17.926299,14.3105 l 4.998028,-16.44212 c 2.39623,0.14182 4.978493,-1.14964 7.507778,-2.09206 1.707771,-0.63664 3.479155,-1.66237 5.184198,-2.27547 l 0.03221,-0.0184 c -0.527841,-51.30579 22.946756,-81.87616 25.358896,-84.51444 5.49359,-6.00865 9.3755,-9.11367 18.46691,-6.66813 5.53418,1.48865 15.51755,14.58322 4.06,18.82175 -7.77655,2.87684 -14.63021,-1.672 -19.07197,-4.82766 -17.952929,26.94329 -17.394381,46.98977 -16.390375,70.62102 6.411485,-2.93285 12.888105,-6.42154 19.136425,-7.95863 l -3.12198,10.10107 c -5.68847,0.5614 -10.34791,3.52353 -15.652844,5.95279 0.620344,12.53903 1.917634,28.64117 -1.514446,42.51779 -4.20758,17.0124 -14.314392,34.2873 -32.669757,38.1037 a 96.32192,95.858052 0 0 0 29.970258,4.8277 96.32192,95.858052 0 0 0 96.322979,-95.8594 96.32192,95.858052 0 0 0 -96.322979,-95.85924 z"
       style="fill:#e6e6e6;stroke:none;stroke-opacity:1" />
  </g>
</svg>
